<?xml version="1.0" standalone="no"?>
<!DOCTYPE svg PUBLIC "-//W3C//DTD SVG 20010904//EN"
 "http://www.w3.org/TR/2001/REC-SVG-20010904/DTD/svg10.dtd">
<svg version="1.0" xmlns="http://www.w3.org/2000/svg"
 width="512.000000pt" height="512.000000pt" viewBox="0 0 512.000000 512.000000"
 preserveAspectRatio="xMidYMid meet">
<metadata>
Created by potrace 1.14, written by Peter Selinger 2001-2017
</metadata>
<g transform="translate(0.000000,512.000000) scale(0.100000,-0.100000)"
fill="#000000" stroke="none">
<path d="M1656 4633 c-173 -35 -329 -182 -377 -353 -7 -25 -13 -106 -15 -180
-2 -74 -3 -138 -3 -141 -1 -3 -153 -5 -338 -5 -186 1 -372 -2 -414 -6 -125
-12 -240 -65 -335 -155 -78 -74 -122 -149 -154 -264 -20 -72 -20 -98 -20
-1319 0 -1356 -2 -1285 58 -1413 78 -165 226 -276 412 -311 49 -9 559 -12
2120 -10 l2055 1 70 23 c153 49 278 155 345 294 21 44 42 95 47 111 4 17 8
599 10 1295 2 1398 6 1309 -63 1447 -69 137 -208 247 -364 288 -55 15 -122 18
-448 19 l-383 1 -4 145 c-2 111 -7 158 -22 201 -57 166 -181 281 -353 330 -65
18 -1735 20 -1824 2z m1064 -1178 c342 -45 653 -232 861 -520 96 -132 183
-342 213 -515 14 -86 15 -336 1 -410 -50 -263 -168 -491 -345 -669 -47 -47
-95 -93 -105 -101 -245 -187 -514 -280 -800 -274 -102 2 -188 10 -234 24 -17
5 -35 9 -39 10 -97 12 -299 102 -426 190 -257 177 -459 485 -511 775 -2 17 -8
41 -11 55 -11 45 -13 293 -3 365 48 349 250 669 552 874 108 74 316 160 426
177 20 3 39 8 43 10 3 2 37 7 75 10 37 4 69 7 71 9 5 4 182 -4 232 -10z"/>
<path d="M2430 3029 c-119 -22 -197 -50 -295 -110 -171 -103 -296 -259 -359
-449 -141 -428 98 -901 527 -1039 172 -55 362 -54 527 3 327 114 551 424 553
766 1 110 -9 177 -41 272 -85 253 -251 420 -527 528 -78 31 -289 47 -385 29z"/>
</g>
</svg>
